<svg width="96" height="72" viewBox="0 0 96 72" fill="none" xmlns="http://www.w3.org/2000/svg">
<path d="M0.650879 10.1188C0.650879 7.84175 1.42553 6.077 2.97485 4.82459C4.55233 3.54373 6.91856 2.9033 10.0735 2.9033C12.1581 2.9033 13.9327 3.10254 15.3975 3.50103V9.39302C13.8201 8.90914 12.2567 8.66719 10.7073 8.66719C9.18619 8.66719 8.20026 8.85221 7.74955 9.22224C7.29884 9.5638 7.07349 10.0761 7.07349 10.7593V25.105C7.07349 26.4712 8.12985 27.1544 10.2425 27.1544C12.3834 27.1544 14.144 26.9409 15.5243 26.5139V32.2778C14.0032 32.7048 12.1581 32.9183 9.98902 32.9183C6.83405 32.9183 4.48191 32.2921 2.93259 31.0397C1.41145 29.7873 0.650879 28.0225 0.650879 25.7454V10.1188Z" fill="white"/>
<path d="M27.8671 14.1749C27.8671 13.0933 27.2756 12.5525 26.0924 12.5525C24.9093 12.5525 24.3178 13.0933 24.3178 14.1749V26.0443C24.3178 27.1259 24.9093 27.6667 26.0924 27.6667C27.2756 27.6667 27.8671 27.1259 27.8671 26.0443V14.1749ZM18.0642 13.9614C18.0642 11.7982 18.7261 10.1188 20.0501 8.92337C21.4022 7.69943 23.4164 7.08746 26.0924 7.08746C28.7685 7.08746 30.7686 7.69943 32.0925 8.92337C33.4446 10.1188 34.1207 11.7982 34.1207 13.9614V26.2578C34.1207 28.421 33.4446 30.1146 32.0925 31.3385C30.7686 32.534 28.7685 33.1317 26.0924 33.1317C23.4164 33.1317 21.4022 32.534 20.0501 31.3385C18.7261 30.1146 18.0642 28.421 18.0642 26.2578V13.9614Z" fill="white"/>
<path d="M38.2276 7.21555C38.2276 2.40518 40.7347 0 45.7488 0C46.3967 0 47.1714 0.0711592 48.0728 0.213477V5.16616C47.6221 5.10923 47.1995 5.08077 46.8052 5.08077C45.3685 5.08077 44.6502 5.7639 44.6502 7.13016V7.51442H48.0728V12.5525H44.6502V32.7048H38.2276V12.5525H35.8191V7.51442H38.2276V7.21555Z" fill="white"/>
<path d="M50.6893 7.21555C50.6893 2.40518 53.1963 0 58.2105 0C58.8584 0 59.633 0.0711592 60.5344 0.213477V5.16616C60.0837 5.10923 59.6612 5.08077 59.2668 5.08077C57.8302 5.08077 57.1119 5.7639 57.1119 7.13016V7.51442H60.5344V12.5525H57.1119V32.7048H50.6893V12.5525H48.2808V7.51442H50.6893V7.21555Z" fill="white"/>
<path d="M62.01 25.5319V13.9614C62.01 11.7982 62.672 10.1188 63.996 8.92337C65.3199 7.69943 67.32 7.08746 69.996 7.08746C75.151 7.08746 77.7285 9.37879 77.7285 13.9614V22.6286H68.1369V25.0196C68.1369 25.8735 68.3622 26.4855 68.8129 26.8555C69.2918 27.1971 70.32 27.3678 71.8975 27.3678C73.5031 27.3678 75.2496 27.0832 77.137 26.5139V32.1497C75.1651 32.6906 73.0524 32.961 70.7989 32.961C64.9396 32.961 62.01 30.4846 62.01 25.5319ZM68.1369 17.7186H71.8552V14.0468C71.8552 12.9652 71.2355 12.4244 69.996 12.4244C68.7566 12.4244 68.1369 12.9652 68.1369 14.0468V17.7186Z" fill="white"/>
<path d="M80.2486 25.5319V13.9614C80.2486 11.7982 80.9106 10.1188 82.2345 8.92337C83.5585 7.69943 85.5585 7.08746 88.2346 7.08746C93.3896 7.08746 95.9671 9.37879 95.9671 13.9614V22.6286H86.3755V25.0196C86.3755 25.8735 86.6008 26.4855 87.0515 26.8555C87.5304 27.1971 88.5586 27.3678 90.136 27.3678C91.7417 27.3678 93.4882 27.0832 95.3755 26.5139V32.1497C93.4037 32.6906 91.291 32.961 89.0374 32.961C83.1782 32.961 80.2486 30.4846 80.2486 25.5319ZM86.3755 17.7186H90.0938V14.0468C90.0938 12.9652 89.4741 12.4244 88.2346 12.4244C86.9952 12.4244 86.3755 12.9652 86.3755 14.0468V17.7186Z" fill="white"/>
<path d="M10.8211 48.4255C10.8211 46.3236 9.72322 45.2726 7.52745 45.2726H4.02578V64.4352H7.52745C9.72322 64.4352 10.8211 63.3609 10.8211 61.2123V48.4255ZM1.56421 43.1006H7.66613C9.5152 43.1006 10.9136 43.5794 11.8612 44.5369C12.8088 45.4945 13.2827 46.779 13.2827 48.3905V61.2823C13.2827 62.9405 12.8204 64.2484 11.8959 65.2059C10.9713 66.1635 9.58454 66.6423 7.73547 66.6423H1.56421V43.1006Z" fill="white"/>
<path d="M17.3336 61.5626V51.8236C17.3336 50.1654 17.7959 48.8459 18.7204 47.865C19.6681 46.8607 21.0896 46.3586 22.9849 46.3586C24.8801 46.3586 26.2785 46.8607 27.1799 47.865C28.1045 48.8459 28.5667 50.1654 28.5667 51.8236V57.9192H19.7605V61.4575C19.7605 62.5085 20.0841 63.2908 20.7313 63.8047C21.3785 64.3185 22.3839 64.5754 23.7476 64.5754C25.1113 64.5754 26.5212 64.3652 27.9773 63.9448V66.2569C26.8217 66.6306 25.4464 66.8174 23.8516 66.8174C19.5063 66.8174 17.3336 65.0658 17.3336 61.5626ZM19.7605 55.8523H26.2092V51.8236C26.2092 49.6283 25.1344 48.5306 22.9849 48.5306C20.8353 48.5306 19.7605 49.6283 19.7605 51.8236V55.8523Z" fill="white"/>
<path d="M32.7808 41.4191H35.2423V66.6423H32.7808V41.4191Z" fill="white"/>
<path d="M41.2397 44.4669C40.2458 44.4669 39.7489 43.9297 39.7489 42.8554C39.7489 41.7811 40.2458 41.2439 41.2397 41.2439C42.2567 41.2439 42.7652 41.7811 42.7652 42.8554C42.7652 43.9297 42.2567 44.4669 41.2397 44.4669ZM40.0262 46.849H42.4878V66.6423H40.0262V46.849Z" fill="white"/>
<path d="M55.1765 46.7089H57.6727L53.3043 66.6423H49.8373L45.4689 46.7089H47.9998L49.9066 55.8523L51.6055 64.8907C52.2989 61.0138 53.4892 54.9532 55.1765 46.7089Z" fill="white"/>
<path d="M60.2987 61.5626V51.8236C60.2987 50.1654 60.761 48.8459 61.6855 47.865C62.6331 46.8607 64.0546 46.3586 65.9499 46.3586C67.8452 46.3586 69.2436 46.8607 70.145 47.865C71.0695 48.8459 71.5318 50.1654 71.5318 51.8236V57.9192H62.7256V61.4575C62.7256 62.5085 63.0492 63.2908 63.6964 63.8047C64.3435 64.3185 65.349 64.5754 66.7127 64.5754C68.0763 64.5754 69.4862 64.3652 70.9424 63.9448V66.2569C69.7867 66.6306 68.4115 66.8174 66.8167 66.8174C62.4714 66.8174 60.2987 65.0658 60.2987 61.5626ZM62.7256 55.8523H69.1742V51.8236C69.1742 49.6283 68.0995 48.5306 65.9499 48.5306C63.8004 48.5306 62.7256 49.6283 62.7256 51.8236V55.8523Z" fill="white"/>
<path d="M82.1251 46.6038H82.9919V48.986H81.8131C80.981 48.986 80.2298 49.2079 79.5595 49.6516C79.3515 49.7918 78.9008 50.107 78.2074 50.5975V66.6423H75.7458V46.7089H78.1034V48.2153C78.1727 48.1686 78.3461 48.0401 78.6234 47.8299C78.9239 47.6198 79.0973 47.503 79.1435 47.4796C79.2128 47.4329 79.3631 47.3395 79.5942 47.1994C79.8484 47.0592 80.0333 46.9775 80.1489 46.9541C80.2876 46.9074 80.4725 46.849 80.7036 46.779C81.0503 46.6622 81.5241 46.6038 82.1251 46.6038Z" fill="white"/>
<path d="M93.5386 46.7089H96.0001L90.5916 71.8621H88.2341L89.3088 66.6423H88.0954L83.7963 46.7089H86.2925L88.3727 56.623L89.8982 64.8907C90.3605 62.1348 90.869 59.3789 91.4237 56.623L93.5386 46.7089Z" fill="white"/>
</svg>
