<svg width="44" height="69" viewBox="0 0 44 69" fill="none" xmlns="http://www.w3.org/2000/svg">
<path d="M43.0461 8.24661C42.4696 7.35266 41.6275 7.32698 40.6679 7.29773C40.5592 7.29441 40.4489 7.29105 40.3374 7.28638C40.2525 7.28242 40.1587 7.28394 40.0608 7.28554C39.6716 7.29187 39.2164 7.29927 38.987 6.96812C38.7211 6.58419 38.7464 5.84224 38.7672 5.22973C38.7738 5.03619 38.7799 4.85545 38.7763 4.70314C38.7389 3.28028 38.661 1.76883 38.1186 1.26356C37.7096 0.884462 36.486 0.936981 35.3576 0.985416C34.9918 1.00112 34.636 1.01639 34.3211 1.01639H10.3022C9.81861 1.01639 9.31168 0.976513 8.81359 0.937331C7.84305 0.860984 6.90609 0.787278 6.24073 1.01639C5.27511 1.35052 5.20973 3.10631 5.14816 4.75964L5.14485 4.8486C5.09315 6.21349 4.75913 7.26669 3.65211 7.1606C2.36456 7.03921 1.08337 7.00093 0.501226 8.18099C-0.186298 9.57721 -0.0445035 11.0387 0.209472 13.6566C0.24575 14.0305 0.284318 14.428 0.323085 14.8524H43.4175C43.4421 14.5422 43.4684 14.2361 43.4942 13.9349C43.696 11.5796 43.8718 9.52753 43.0461 8.24661Z" fill="white"/>
<path fill-rule="evenodd" clip-rule="evenodd" d="M3.67915 17.4487C4.3522 26.6733 5.0179 35.9085 5.68362 45.1438L5.68402 45.1495C6.04548 50.164 6.40695 55.1785 6.76959 60.1914H8.14463C8.23833 60.976 8.34554 61.9448 8.45857 62.9661C8.68803 65.0394 8.94152 67.3298 9.15463 68.7373H9.30671C10.7073 68.2183 20.3898 64.0272 20.3941 47.3416C20.3923 47.294 20.3939 47.2464 20.3988 47.1992H18.0067C17.8908 47.1981 17.7786 47.1589 17.6872 47.0877C17.5958 47.0166 17.5302 46.9173 17.5007 46.8052C17.2676 46.2221 17.0796 45.6219 16.9385 45.0099C15.5312 45.8147 14.4137 47.0437 13.7452 48.5217C13.1106 47.008 13.0275 45.3192 13.5105 43.7504C13.9935 42.1816 15.0118 40.8325 16.3875 39.939C16.4052 35.0701 18.2054 30.3766 21.4473 26.7469L21.4979 26.7019C21.5921 26.6194 21.7128 26.5735 21.8379 26.5725C21.9102 26.5731 21.9817 26.5888 22.0477 26.6184C22.1145 26.6485 22.1743 26.6923 22.2231 26.7469C25.5029 30.3815 27.2936 35.1202 27.238 40.0178C28.6394 40.8864 29.6784 42.2345 30.1623 43.8118C30.6461 45.3891 30.5419 47.0886 29.8691 48.5949C29.2041 47.1145 28.0857 45.8845 26.6758 45.083C26.5896 45.6762 26.431 46.2564 26.2035 46.8108C26.1248 47.0472 25.9674 47.1992 25.81 47.1992H23.2589C23.2629 47.2275 23.2658 47.2559 23.2674 47.2844L23.2684 47.291V47.3048C23.2693 47.3293 23.2694 47.354 23.2685 47.3786C23.3034 64.5433 33.598 68.4393 34.4657 68.7373H34.7625C34.8383 67.3854 35.085 65.5198 35.3255 63.7011C35.4912 62.4478 35.6539 61.2167 35.7558 60.1914H37.1468C37.592 53.8771 38.0499 47.5805 38.5078 41.2838L38.508 41.2804L38.5082 41.2786C39.0939 33.2244 39.6796 25.1699 40.2388 17.078H3.76822C3.66324 17.0987 3.6704 17.2726 3.67915 17.4487ZM21.8379 26.5725L21.8352 26.5725H21.8408L21.8379 26.5725Z" fill="white"/>
</svg>
